<?xml version="1.0" encoding="utf-8"?>
<svg width="862" height="884" viewBox="0 0 862 884" xmlns="http://www.w3.org/2000/svg">
<rect id="frame" x="0" y="0" width="862" height="884" fill="#f7f7f7" stroke="none" stroke-width="0"/>

<!-- Association Paru dans -->
<g class="page_0_KWpCj08Y diagram_page" visibility="visible">
	<line x1="318" y1="245" x2="65" y2="127" stroke="#9970ab" stroke-width="2"/>
	<text x="245" y="236.43" fill="#1b7837" font-family="Verdana" font-size="12">1,1</text>
	<line x1="65" y1="43" x2="65" y2="127" stroke="#9970ab" stroke-width="2"/>
	<text x="70" y="94" fill="#1b7837" font-family="Verdana" font-size="12">1,N</text>
	<g>
		<path d="M89 102 a14 14 90 0 1 14 14 V127 h-76 V116 a14 14 90 0 1 14 -14" fill="#c2a5cf" stroke="#c2a5cf" stroke-width="0"/>
		<path d="M103 127 v11 a14 14 90 0 1 -14 14 H41 a14 14 90 0 1 -14 -14 V127 H76" fill="#e7d4e8" stroke="#e7d4e8" stroke-width="0"/>
		<rect x="27" y="102" width="76" height="50" fill="none" rx="14" stroke="#9970ab" stroke-width="2"/>
		<line x1="27" y1="127" x2="103" y2="127" stroke="#9970ab" stroke-width="1"/>
		<text x="35" y="119.75" fill="#000" font-family="Verdana" font-size="12">Paru dans</text>
	</g>
</g>

<!-- Association Est mis en avant -->
<g class="page_0_KWpCj08Y diagram_page" visibility="visible">
	<line x1="318" y1="245" x2="193" y2="127" stroke="#9970ab" stroke-width="2"/>
	<text x="245" y="210.85" fill="#1b7837" font-family="Verdana" font-size="12">1,1</text>
	<line x1="193" y1="43" x2="193" y2="127" stroke="#9970ab" stroke-width="2"/>
	<text x="198" y="94" fill="#1b7837" font-family="Verdana" font-size="12">1,N</text>
	<g>
		<path d="M237 102 a14 14 90 0 1 14 14 V127 h-116 V116 a14 14 90 0 1 14 -14" fill="#c2a5cf" stroke="#c2a5cf" stroke-width="0"/>
		<path d="M251 127 v11 a14 14 90 0 1 -14 14 H149 a14 14 90 0 1 -14 -14 V127 H116" fill="#e7d4e8" stroke="#e7d4e8" stroke-width="0"/>
		<rect x="135" y="102" width="116" height="50" fill="none" rx="14" stroke="#9970ab" stroke-width="2"/>
		<line x1="135" y1="127" x2="251" y2="127" stroke="#9970ab" stroke-width="1"/>
		<text x="142" y="119.75" fill="#000" font-family="Verdana" font-size="12">Est mis en avant</text>
	</g>
</g>

<!-- Association parut_en -->
<g class="page_0_KWpCj08Y diagram_page" visibility="visible">
	<line x1="318" y1="245" x2="318" y2="127" stroke="#9970ab" stroke-width="2"/>
	<text x="323" y="169" fill="#1b7837" font-family="Verdana" font-size="12">1,1</text>
	<line x1="318" y1="43" x2="318" y2="127" stroke="#9970ab" stroke-width="2"/>
	<text x="323" y="94" fill="#1b7837" font-family="Verdana" font-size="12">1,N</text>
	<g>
		<path d="M339 102 a14 14 90 0 1 14 14 V127 h-70 V116 a14 14 90 0 1 14 -14" fill="#c2a5cf" stroke="#c2a5cf" stroke-width="0"/>
		<path d="M353 127 v11 a14 14 90 0 1 -14 14 H297 a14 14 90 0 1 -14 -14 V127 H70" fill="#e7d4e8" stroke="#e7d4e8" stroke-width="0"/>
		<rect x="283" y="102" width="70" height="50" fill="none" rx="14" stroke="#9970ab" stroke-width="2"/>
		<line x1="283" y1="127" x2="353" y2="127" stroke="#9970ab" stroke-width="1"/>
		<text x="290" y="119.75" fill="#000" font-family="Verdana" font-size="12">parut_en</text>
	</g>
</g>

<!-- Association Est marqué par -->
<g class="page_0_KWpCj08Y diagram_page" visibility="visible">
	<line x1="318" y1="245" x2="442" y2="127" stroke="#9970ab" stroke-width="2"/>
	<text x="370" y="210.45" fill="#1b7837" font-family="Verdana" font-size="12">1,N</text>
	<line x1="564" y1="127" x2="442" y2="127" stroke="#9970ab" stroke-width="2"/>
	<text x="502" y="144" fill="#1b7837" font-family="Verdana" font-size="12">1,1</text>
	<g>
		<path d="M482 102 a14 14 90 0 1 14 14 V127 h-108 V116 a14 14 90 0 1 14 -14" fill="#c2a5cf" stroke="#c2a5cf" stroke-width="0"/>
		<path d="M496 127 v11 a14 14 90 0 1 -14 14 H402 a14 14 90 0 1 -14 -14 V127 H108" fill="#e7d4e8" stroke="#e7d4e8" stroke-width="0"/>
		<rect x="388" y="102" width="108" height="50" fill="none" rx="14" stroke="#9970ab" stroke-width="2"/>
		<line x1="388" y1="127" x2="496" y2="127" stroke="#9970ab" stroke-width="1"/>
		<text x="395" y="119.75" fill="#000" font-family="Verdana" font-size="12">Est marqué par</text>
	</g>
</g>

<!-- Association Marque -->
<g class="page_0_KWpCj08Y diagram_page" visibility="visible">
	<line x1="749" y1="127" x2="662" y2="127" stroke="#9970ab" stroke-width="2"/>
	<text x="697" y="144" fill="#1b7837" font-family="Verdana" font-size="12">1,N</text>
	<line x1="564" y1="127" x2="662" y2="127" stroke="#9970ab" stroke-width="2"/>
	<text x="605" y="144" fill="#1b7837" font-family="Verdana" font-size="12">1,1</text>
	<g>
		<path d="M678 102 a14 14 90 0 1 14 14 V127 h-60 V116 a14 14 90 0 1 14 -14" fill="#c2a5cf" stroke="#c2a5cf" stroke-width="0"/>
		<path d="M692 127 v11 a14 14 90 0 1 -14 14 H646 a14 14 90 0 1 -14 -14 V127 H60" fill="#e7d4e8" stroke="#e7d4e8" stroke-width="0"/>
		<rect x="632" y="102" width="60" height="50" fill="none" rx="14" stroke="#9970ab" stroke-width="2"/>
		<line x1="632" y1="127" x2="692" y2="127" stroke="#9970ab" stroke-width="1"/>
		<text x="639" y="119.75" fill="#000" font-family="Verdana" font-size="12">Marque</text>
	</g>
</g>

<!-- Association Contient -->
<g class="page_0_KWpCj08Y diagram_page" visibility="visible">
	<line x1="318" y1="245" x2="193" y2="245" stroke="#9970ab" stroke-width="2"/>
	<text x="244" y="262" fill="#1b7837" font-family="Verdana" font-size="12">0,N</text>
	<line x1="65" y1="245" x2="193" y2="245" stroke="#9970ab" stroke-width="2"/>
	<text x="126" y="262" fill="#1b7837" font-family="Verdana" font-size="12">1,1</text>
	<g>
		<path d="M212 220 a14 14 90 0 1 14 14 V245 h-66 V234 a14 14 90 0 1 14 -14" fill="#c2a5cf" stroke="#c2a5cf" stroke-width="0"/>
		<path d="M226 245 v11 a14 14 90 0 1 -14 14 H174 a14 14 90 0 1 -14 -14 V245 H66" fill="#e7d4e8" stroke="#e7d4e8" stroke-width="0"/>
		<rect x="160" y="220" width="66" height="50" fill="none" rx="14" stroke="#9970ab" stroke-width="2"/>
		<line x1="160" y1="245" x2="226" y2="245" stroke="#9970ab" stroke-width="1"/>
		<text x="167" y="237.75" fill="#000" font-family="Verdana" font-size="12">Contient</text>
	</g>
</g>

<!-- Association Est géré par -->
<g class="page_0_KWpCj08Y diagram_page" visibility="visible">
	<line x1="318" y1="245" x2="442" y2="245" stroke="#9970ab" stroke-width="2"/>
	<text x="370" y="262" fill="#1b7837" font-family="Verdana" font-size="12">1,N</text>
	<line x1="564" y1="245" x2="442" y2="245" stroke="#9970ab" stroke-width="2"/>
	<text x="502" y="262" fill="#1b7837" font-family="Verdana" font-size="12">1,1</text>
	<g>
		<path d="M473 220 a14 14 90 0 1 14 14 V245 h-90 V234 a14 14 90 0 1 14 -14" fill="#c2a5cf" stroke="#c2a5cf" stroke-width="0"/>
		<path d="M487 245 v11 a14 14 90 0 1 -14 14 H411 a14 14 90 0 1 -14 -14 V245 H90" fill="#e7d4e8" stroke="#e7d4e8" stroke-width="0"/>
		<rect x="397" y="220" width="90" height="50" fill="none" rx="14" stroke="#9970ab" stroke-width="2"/>
		<line x1="397" y1="245" x2="487" y2="245" stroke="#9970ab" stroke-width="1"/>
		<text x="405" y="237.75" fill="#000" font-family="Verdana" font-size="12">Est géré par</text>
	</g>
</g>

<!-- Association Gère -->
<g class="page_0_KWpCj08Y diagram_page" visibility="visible">
	<line x1="662" y1="363" x2="662" y2="245" stroke="#9970ab" stroke-width="2"/>
	<text x="667" y="321" fill="#1b7837" font-family="Verdana" font-size="12">1,N</text>
	<line x1="564" y1="245" x2="662" y2="245" stroke="#9970ab" stroke-width="2"/>
	<text x="605" y="262" fill="#1b7837" font-family="Verdana" font-size="12">1,1</text>
	<g>
		<path d="M670 220 a14 14 90 0 1 14 14 V245 h-44 V234 a14 14 90 0 1 14 -14" fill="#c2a5cf" stroke="#c2a5cf" stroke-width="0"/>
		<path d="M684 245 v11 a14 14 90 0 1 -14 14 H654 a14 14 90 0 1 -14 -14 V245 H44" fill="#e7d4e8" stroke="#e7d4e8" stroke-width="0"/>
		<rect x="640" y="220" width="44" height="50" fill="none" rx="14" stroke="#9970ab" stroke-width="2"/>
		<line x1="640" y1="245" x2="684" y2="245" stroke="#9970ab" stroke-width="1"/>
		<text x="647" y="237.75" fill="#000" font-family="Verdana" font-size="12">Gère</text>
	</g>
</g>

<!-- Association Est dans l’état -->
<g class="page_0_KWpCj08Y diagram_page" visibility="visible">
	<line x1="318" y1="245" x2="193" y2="363" stroke="#9970ab" stroke-width="2"/>
	<text x="245" y="288.15" fill="#1b7837" font-family="Verdana" font-size="12">1,1</text>
	<line x1="193" y1="455" x2="193" y2="363" stroke="#9970ab" stroke-width="2"/>
	<text x="198" y="413" fill="#1b7837" font-family="Verdana" font-size="12">1,N</text>
	<g>
		<path d="M230 338 a14 14 90 0 1 14 14 V363 h-102 V352 a14 14 90 0 1 14 -14" fill="#c2a5cf" stroke="#c2a5cf" stroke-width="0"/>
		<path d="M244 363 v11 a14 14 90 0 1 -14 14 H156 a14 14 90 0 1 -14 -14 V363 H102" fill="#e7d4e8" stroke="#e7d4e8" stroke-width="0"/>
		<rect x="142" y="338" width="102" height="50" fill="none" rx="14" stroke="#9970ab" stroke-width="2"/>
		<line x1="142" y1="363" x2="244" y2="363" stroke="#9970ab" stroke-width="1"/>
		<text x="150" y="355.75" fill="#000" font-family="Verdana" font-size="12">Est dans l’état</text>
	</g>
</g>

<!-- Association Ecrit par -->
<g class="page_0_KWpCj08Y diagram_page" visibility="visible">
	<line x1="318" y1="245" x2="318" y2="363" stroke="#9970ab" stroke-width="2"/>
	<text x="323" y="330" fill="#1b7837" font-family="Verdana" font-size="12">1,N</text>
	<line x1="318" y1="455" x2="318" y2="363" stroke="#9970ab" stroke-width="2"/>
	<text x="323" y="405" fill="#1b7837" font-family="Verdana" font-size="12">1,1</text>
	<g>
		<path d="M337 338 a14 14 90 0 1 14 14 V363 h-66 V352 a14 14 90 0 1 14 -14" fill="#c2a5cf" stroke="#c2a5cf" stroke-width="0"/>
		<path d="M351 363 v11 a14 14 90 0 1 -14 14 H299 a14 14 90 0 1 -14 -14 V363 H66" fill="#e7d4e8" stroke="#e7d4e8" stroke-width="0"/>
		<rect x="285" y="338" width="66" height="50" fill="none" rx="14" stroke="#9970ab" stroke-width="2"/>
		<line x1="285" y1="363" x2="351" y2="363" stroke="#9970ab" stroke-width="1"/>
		<text x="292" y="355.75" fill="#000" font-family="Verdana" font-size="12">Ecrit par</text>
	</g>
</g>

<!-- Association Est typé -->
<g class="page_0_KWpCj08Y diagram_page" visibility="visible">
	<line x1="318" y1="245" x2="442" y2="363" stroke="#9970ab" stroke-width="2"/>
	<text x="370" y="288.55" fill="#1b7837" font-family="Verdana" font-size="12">1,1</text>
	<line x1="442" y1="455" x2="442" y2="363" stroke="#9970ab" stroke-width="2"/>
	<text x="447" y="413" fill="#1b7837" font-family="Verdana" font-size="12">1,N</text>
	<g>
		<path d="M460 338 a14 14 90 0 1 14 14 V363 h-64 V352 a14 14 90 0 1 14 -14" fill="#c2a5cf" stroke="#c2a5cf" stroke-width="0"/>
		<path d="M474 363 v11 a14 14 90 0 1 -14 14 H424 a14 14 90 0 1 -14 -14 V363 H64" fill="#e7d4e8" stroke="#e7d4e8" stroke-width="0"/>
		<rect x="410" y="338" width="64" height="50" fill="none" rx="14" stroke="#9970ab" stroke-width="2"/>
		<line x1="410" y1="363" x2="474" y2="363" stroke="#9970ab" stroke-width="1"/>
		<text x="417" y="355.75" fill="#000" font-family="Verdana" font-size="12">Est typé</text>
	</g>
</g>

<!-- Association Ecrit -->
<g class="page_0_KWpCj08Y diagram_page" visibility="visible">
	<line x1="193" y1="556" x2="318" y2="556" stroke="#9970ab" stroke-width="2"/>
	<text x="254" y="573" fill="#1b7837" font-family="Verdana" font-size="12">1,N</text>
	<line x1="318" y1="455" x2="318" y2="556" stroke="#9970ab" stroke-width="2"/>
	<text x="323" y="514" fill="#1b7837" font-family="Verdana" font-size="12">1,1</text>
	<g>
		<path d="M325 531 a14 14 90 0 1 14 14 V556 h-42 V545 a14 14 90 0 1 14 -14" fill="#c2a5cf" stroke="#c2a5cf" stroke-width="0"/>
		<path d="M339 556 v11 a14 14 90 0 1 -14 14 H311 a14 14 90 0 1 -14 -14 V556 H42" fill="#e7d4e8" stroke="#e7d4e8" stroke-width="0"/>
		<rect x="297" y="531" width="42" height="50" fill="none" rx="14" stroke="#9970ab" stroke-width="2"/>
		<line x1="297" y1="556" x2="339" y2="556" stroke="#9970ab" stroke-width="1"/>
		<text x="304" y="548.75" fill="#000" font-family="Verdana" font-size="12">Ecrit</text>
	</g>
</g>

<!-- Association Est -->
<g class="page_0_KWpCj08Y diagram_page" visibility="visible">
	<line x1="749" y1="740" x2="836" y2="841" stroke="#9970ab" stroke-width="2"/>
	<text x="764.51" y="799" fill="#1b7837" font-family="Verdana" font-size="12">1,N</text>
	<line x1="749" y1="841" x2="836" y2="841" stroke="#9970ab" stroke-width="2"/>
	<text x="792" y="858" fill="#1b7837" font-family="Verdana" font-size="12">1,1</text>
	<g>
		<path d="M839 816 a14 14 90 0 1 14 14 V841 h-34 V830 a14 14 90 0 1 14 -14" fill="#c2a5cf" stroke="#c2a5cf" stroke-width="0"/>
		<path d="M853 841 v11 a14 14 90 0 1 -14 14 H833 a14 14 90 0 1 -14 -14 V841 H34" fill="#e7d4e8" stroke="#e7d4e8" stroke-width="0"/>
		<rect x="819" y="816" width="34" height="50" fill="none" rx="14" stroke="#9970ab" stroke-width="2"/>
		<line x1="819" y1="841" x2="853" y2="841" stroke="#9970ab" stroke-width="1"/>
		<text x="826" y="833.75" fill="#000" font-family="Verdana" font-size="12">Est</text>
	</g>
</g>

<!-- Entity Magazine -->
<g class="page_0_KWpCj08Y diagram_page" visibility="visible">
	<g>
		<rect x="10" y="9" width="110" height="25" fill="#a6dba0" stroke="#a6dba0" stroke-width="0" opacity="1"/>
		<rect x="10" y="34" width="110" height="43" fill="#d9f0d3" stroke="#d9f0d3" stroke-width="0" opacity="1"/>
		<rect x="10" y="9" width="110" height="68" fill="none" stroke="#5aae61" stroke-width="2" opacity="1"/>
		<line x1="10" y1="34" x2="120" y2="34" stroke="#5aae61" stroke-width="1"/>
	</g>
	<text x="37" y="26.75" fill="#000" font-family="Verdana" font-size="12">Magazine</text>
	<text x="15" y="51.8" fill="#000" font-family="Verdana" font-size="12">id_magazine</text>
	<line x1="15" y1="54" x2="92" y2="54" stroke="#000" stroke-width="1"/>
	<text x="15" y="68.8" fill="#000" font-family="Verdana" font-size="12">name_magazine</text>
</g>

<!-- Entity Explore -->
<g class="page_0_KWpCj08Y diagram_page" visibility="visible">
	<g>
		<rect x="156" y="9" width="74" height="25" fill="#a6dba0" stroke="#a6dba0" stroke-width="0" opacity="1"/>
		<rect x="156" y="34" width="74" height="43" fill="#d9f0d3" stroke="#d9f0d3" stroke-width="0" opacity="1"/>
		<rect x="156" y="9" width="74" height="68" fill="none" stroke="#5aae61" stroke-width="2" opacity="1"/>
		<line x1="156" y1="34" x2="230" y2="34" stroke="#5aae61" stroke-width="1"/>
	</g>
	<text x="170" y="26.75" fill="#000" font-family="Verdana" font-size="12">Explore</text>
	<text x="161" y="51.8" fill="#000" font-family="Verdana" font-size="12">id_explore</text>
	<line x1="161" y1="54" x2="225" y2="54" stroke="#000" stroke-width="1"/>
	<text x="161" y="68.8" fill="#000" font-family="Verdana" font-size="12">manga_fk</text>
</g>

<!-- Entity Year -->
<g class="page_0_KWpCj08Y diagram_page" visibility="visible">
	<g>
		<rect x="290" y="9" width="56" height="25" fill="#a6dba0" stroke="#a6dba0" stroke-width="0" opacity="1"/>
		<rect x="290" y="34" width="56" height="43" fill="#d9f0d3" stroke="#d9f0d3" stroke-width="0" opacity="1"/>
		<rect x="290" y="9" width="56" height="68" fill="none" stroke="#5aae61" stroke-width="2" opacity="1"/>
		<line x1="290" y1="34" x2="346" y2="34" stroke="#5aae61" stroke-width="1"/>
	</g>
	<text x="304" y="26.75" fill="#000" font-family="Verdana" font-size="12">Year</text>
	<text x="295" y="51.8" fill="#000" font-family="Verdana" font-size="12">id_year</text>
	<line x1="295" y1="54" x2="341" y2="54" stroke="#000" stroke-width="1"/>
	<text x="295" y="68.8" fill="#000" font-family="Verdana" font-size="12">value</text>
</g>

<!-- Entity AssocMT -->
<g class="page_0_KWpCj08Y diagram_page" visibility="visible">
	<g>
		<rect x="528" y="85" width="72" height="25" fill="#a6dba0" stroke="#a6dba0" stroke-width="0" opacity="1"/>
		<rect x="528" y="110" width="72" height="59" fill="#d9f0d3" stroke="#d9f0d3" stroke-width="0" opacity="1"/>
		<rect x="528" y="85" width="72" height="84" fill="none" stroke="#5aae61" stroke-width="2" opacity="1"/>
		<line x1="528" y1="110" x2="600" y2="110" stroke="#5aae61" stroke-width="1"/>
	</g>
	<text x="538" y="102.75" fill="#000" font-family="Verdana" font-size="12">AssocMT</text>
	<text x="533" y="127.8" fill="#000" font-family="Verdana" font-size="12">id_amt</text>
	<line x1="533" y1="130" x2="576" y2="130" stroke="#000" stroke-width="1"/>
	<text x="533" y="144.8" fill="#000" font-family="Verdana" font-size="12">manga_fk</text>
	<text x="533" y="161.8" fill="#000" font-family="Verdana" font-size="12">tag_fk</text>
</g>

<!-- Entity Tag -->
<g class="page_0_KWpCj08Y diagram_page" visibility="visible">
	<g>
		<rect x="724" y="93" width="50" height="25" fill="#a6dba0" stroke="#a6dba0" stroke-width="0" opacity="1"/>
		<rect x="724" y="118" width="50" height="43" fill="#d9f0d3" stroke="#d9f0d3" stroke-width="0" opacity="1"/>
		<rect x="724" y="93" width="50" height="68" fill="none" stroke="#5aae61" stroke-width="2" opacity="1"/>
		<line x1="724" y1="118" x2="774" y2="118" stroke="#5aae61" stroke-width="1"/>
	</g>
	<text x="738" y="110.75" fill="#000" font-family="Verdana" font-size="12">Tag</text>
	<text x="729" y="135.8" fill="#000" font-family="Verdana" font-size="12">id_tag</text>
	<line x1="729" y1="138" x2="768" y2="138" stroke="#000" stroke-width="1"/>
	<text x="729" y="152.8" fill="#000" font-family="Verdana" font-size="12">name</text>
</g>

<!-- Entity Chapter -->
<g class="page_0_KWpCj08Y diagram_page" visibility="visible">
	<g>
		<rect x="9" y="177" width="112" height="25" fill="#a6dba0" stroke="#a6dba0" stroke-width="0" opacity="1"/>
		<rect x="9" y="202" width="112" height="111" fill="#d9f0d3" stroke="#d9f0d3" stroke-width="0" opacity="1"/>
		<rect x="9" y="177" width="112" height="136" fill="none" stroke="#5aae61" stroke-width="2" opacity="1"/>
		<line x1="9" y1="202" x2="121" y2="202" stroke="#5aae61" stroke-width="1"/>
	</g>
	<text x="41" y="194.75" fill="#000" font-family="Verdana" font-size="12">Chapter</text>
	<text x="14" y="219.8" fill="#000" font-family="Verdana" font-size="12">id_chapter</text>
	<line x1="14" y1="222" x2="79" y2="222" stroke="#000" stroke-width="1"/>
	<text x="14" y="236.8" fill="#000" font-family="Verdana" font-size="12">name_chapter</text>
	<text x="14" y="253.8" fill="#000" font-family="Verdana" font-size="12">number_chapter</text>
	<text x="14" y="270.8" fill="#000" font-family="Verdana" font-size="12">url</text>
	<text x="14" y="287.8" fill="#000" font-family="Verdana" font-size="12">state</text>
	<text x="14" y="304.8" fill="#000" font-family="Verdana" font-size="12">date_mel</text>
</g>

<!-- Entity Manga -->
<g class="page_0_KWpCj08Y diagram_page" visibility="visible">
	<g>
		<rect x="271" y="177" width="94" height="25" fill="#a6dba0" stroke="#a6dba0" stroke-width="0" opacity="1"/>
		<rect x="271" y="202" width="94" height="111" fill="#d9f0d3" stroke="#d9f0d3" stroke-width="0" opacity="1"/>
		<rect x="271" y="177" width="94" height="136" fill="none" stroke="#5aae61" stroke-width="2" opacity="1"/>
		<line x1="271" y1="202" x2="365" y2="202" stroke="#5aae61" stroke-width="1"/>
	</g>
	<text x="298" y="194.75" fill="#000" font-family="Verdana" font-size="12">Manga</text>
	<text x="276" y="219.8" fill="#000" font-family="Verdana" font-size="12">id_manga</text>
	<line x1="276" y1="222" x2="337" y2="222" stroke="#000" stroke-width="1"/>
	<text x="276" y="236.8" fill="#000" font-family="Verdana" font-size="12">name_manga</text>
	<text x="276" y="253.8" fill="#000" font-family="Verdana" font-size="12">alt_name</text>
	<text x="276" y="270.8" fill="#000" font-family="Verdana" font-size="12">summary</text>
	<text x="276" y="287.8" fill="#000" font-family="Verdana" font-size="12">note</text>
	<text x="276" y="304.8" fill="#000" font-family="Verdana" font-size="12">state</text>
</g>

<!-- Entity AssocMTe -->
<g class="page_0_KWpCj08Y diagram_page" visibility="visible">
	<g>
		<rect x="528" y="203" width="72" height="25" fill="#a6dba0" stroke="#a6dba0" stroke-width="0" opacity="1"/>
		<rect x="528" y="228" width="72" height="59" fill="#d9f0d3" stroke="#d9f0d3" stroke-width="0" opacity="1"/>
		<rect x="528" y="203" width="72" height="84" fill="none" stroke="#5aae61" stroke-width="2" opacity="1"/>
		<line x1="528" y1="228" x2="600" y2="228" stroke="#5aae61" stroke-width="1"/>
	</g>
	<text x="534" y="220.75" fill="#000" font-family="Verdana" font-size="12">AssocMTe</text>
	<text x="533" y="245.8" fill="#000" font-family="Verdana" font-size="12">id_amte</text>
	<line x1="533" y1="248" x2="583" y2="248" stroke="#000" stroke-width="1"/>
	<text x="533" y="262.8" fill="#000" font-family="Verdana" font-size="12">manga_fk</text>
	<text x="533" y="279.8" fill="#000" font-family="Verdana" font-size="12">team_fk</text>
</g>

<!-- Entity Team -->
<g class="page_0_KWpCj08Y diagram_page" visibility="visible">
	<g>
		<rect x="620" y="329" width="84" height="25" fill="#a6dba0" stroke="#a6dba0" stroke-width="0" opacity="1"/>
		<rect x="620" y="354" width="84" height="43" fill="#d9f0d3" stroke="#d9f0d3" stroke-width="0" opacity="1"/>
		<rect x="620" y="329" width="84" height="68" fill="none" stroke="#5aae61" stroke-width="2" opacity="1"/>
		<line x1="620" y1="354" x2="704" y2="354" stroke="#5aae61" stroke-width="1"/>
	</g>
	<text x="645" y="346.75" fill="#000" font-family="Verdana" font-size="12">Team</text>
	<text x="625" y="371.8" fill="#000" font-family="Verdana" font-size="12">id_team</text>
	<line x1="625" y1="374" x2="675" y2="374" stroke="#000" stroke-width="1"/>
	<text x="625" y="388.8" fill="#000" font-family="Verdana" font-size="12">name_team</text>
</g>

<!-- Entity Status -->
<g class="page_0_KWpCj08Y diagram_page" visibility="visible">
	<g>
		<rect x="148" y="421" width="90" height="25" fill="#a6dba0" stroke="#a6dba0" stroke-width="0" opacity="1"/>
		<rect x="148" y="446" width="90" height="43" fill="#d9f0d3" stroke="#d9f0d3" stroke-width="0" opacity="1"/>
		<rect x="148" y="421" width="90" height="68" fill="none" stroke="#5aae61" stroke-width="2" opacity="1"/>
		<line x1="148" y1="446" x2="238" y2="446" stroke="#5aae61" stroke-width="1"/>
	</g>
	<text x="173" y="438.75" fill="#000" font-family="Verdana" font-size="12">Status</text>
	<text x="153" y="463.8" fill="#000" font-family="Verdana" font-size="12">id_status</text>
	<line x1="153" y1="466" x2="209" y2="466" stroke="#000" stroke-width="1"/>
	<text x="153" y="480.8" fill="#000" font-family="Verdana" font-size="12">name_satuts</text>
</g>

<!-- Entity AssocMA -->
<g class="page_0_KWpCj08Y diagram_page" visibility="visible">
	<g>
		<rect x="282" y="413" width="72" height="25" fill="#a6dba0" stroke="#a6dba0" stroke-width="0" opacity="1"/>
		<rect x="282" y="438" width="72" height="59" fill="#d9f0d3" stroke="#d9f0d3" stroke-width="0" opacity="1"/>
		<rect x="282" y="413" width="72" height="84" fill="none" stroke="#5aae61" stroke-width="2" opacity="1"/>
		<line x1="282" y1="438" x2="354" y2="438" stroke="#5aae61" stroke-width="1"/>
	</g>
	<text x="292" y="430.75" fill="#000" font-family="Verdana" font-size="12">AssocMA</text>
	<text x="287" y="455.8" fill="#000" font-family="Verdana" font-size="12">id_ama</text>
	<line x1="287" y1="458" x2="333" y2="458" stroke="#000" stroke-width="1"/>
	<text x="287" y="472.8" fill="#000" font-family="Verdana" font-size="12">manga_fk</text>
	<text x="287" y="489.8" fill="#000" font-family="Verdana" font-size="12">author_fk</text>
</g>

<!-- Entity Type -->
<g class="page_0_KWpCj08Y diagram_page" visibility="visible">
	<g>
		<rect x="402" y="421" width="80" height="25" fill="#a6dba0" stroke="#a6dba0" stroke-width="0" opacity="1"/>
		<rect x="402" y="446" width="80" height="43" fill="#d9f0d3" stroke="#d9f0d3" stroke-width="0" opacity="1"/>
		<rect x="402" y="421" width="80" height="68" fill="none" stroke="#5aae61" stroke-width="2" opacity="1"/>
		<line x1="402" y1="446" x2="482" y2="446" stroke="#5aae61" stroke-width="1"/>
	</g>
	<text x="427" y="438.75" fill="#000" font-family="Verdana" font-size="12">Type</text>
	<text x="407" y="463.8" fill="#000" font-family="Verdana" font-size="12">id_type</text>
	<line x1="407" y1="466" x2="453" y2="466" stroke="#000" stroke-width="1"/>
	<text x="407" y="480.8" fill="#000" font-family="Verdana" font-size="12">name_type</text>
</g>

<!-- Entity Author -->
<g class="page_0_KWpCj08Y diagram_page" visibility="visible">
	<g>
		<rect x="137" y="514" width="112" height="25" fill="#a6dba0" stroke="#a6dba0" stroke-width="0" opacity="1"/>
		<rect x="137" y="539" width="112" height="59" fill="#d9f0d3" stroke="#d9f0d3" stroke-width="0" opacity="1"/>
		<rect x="137" y="514" width="112" height="84" fill="none" stroke="#5aae61" stroke-width="2" opacity="1"/>
		<line x1="137" y1="539" x2="249" y2="539" stroke="#5aae61" stroke-width="1"/>
	</g>
	<text x="173" y="531.75" fill="#000" font-family="Verdana" font-size="12">Author</text>
	<text x="142" y="556.8" fill="#000" font-family="Verdana" font-size="12">id_author</text>
	<line x1="142" y1="559" x2="201" y2="559" stroke="#000" stroke-width="1"/>
	<text x="142" y="573.8" fill="#000" font-family="Verdana" font-size="12">name_author</text>
	<text x="142" y="590.8" fill="#000" font-family="Verdana" font-size="12">surname_author</text>
</g>

<!-- Entity Staff -->
<g class="page_0_KWpCj08Y diagram_page" visibility="visible">
	<g>
		<rect x="698" y="698" width="102" height="25" fill="#a6dba0" stroke="#a6dba0" stroke-width="0" opacity="1"/>
		<rect x="698" y="723" width="102" height="59" fill="#d9f0d3" stroke="#d9f0d3" stroke-width="0" opacity="1"/>
		<rect x="698" y="698" width="102" height="84" fill="none" stroke="#5aae61" stroke-width="2" opacity="1"/>
		<line x1="698" y1="723" x2="800" y2="723" stroke="#5aae61" stroke-width="1"/>
	</g>
	<text x="734" y="715.75" fill="#000" font-family="Verdana" font-size="12">Staff</text>
	<text x="703" y="740.8" fill="#000" font-family="Verdana" font-size="12">id_staff</text>
	<line x1="703" y1="743" x2="749" y2="743" stroke="#000" stroke-width="1"/>
	<text x="703" y="757.8" fill="#000" font-family="Verdana" font-size="12">name_staff</text>
	<text x="703" y="774.8" fill="#000" font-family="Verdana" font-size="12">password_staff</text>
</g>

<!-- Entity Role -->
<g class="page_0_KWpCj08Y diagram_page" visibility="visible">
	<g>
		<rect x="711" y="807" width="76" height="25" fill="#a6dba0" stroke="#a6dba0" stroke-width="0" opacity="1"/>
		<rect x="711" y="832" width="76" height="43" fill="#d9f0d3" stroke="#d9f0d3" stroke-width="0" opacity="1"/>
		<rect x="711" y="807" width="76" height="68" fill="none" stroke="#5aae61" stroke-width="2" opacity="1"/>
		<line x1="711" y1="832" x2="787" y2="832" stroke="#5aae61" stroke-width="1"/>
	</g>
	<text x="736" y="824.75" fill="#000" font-family="Verdana" font-size="12">Role</text>
	<text x="716" y="849.8" fill="#000" font-family="Verdana" font-size="12">id_role</text>
	<line x1="716" y1="852" x2="758" y2="852" stroke="#000" stroke-width="1"/>
	<text x="716" y="866.8" fill="#000" font-family="Verdana" font-size="12">name_role</text>
</g>
</svg>