<?xml version="1.0" encoding="UTF-8"?>
<svg id="star" xmlns="http://www.w3.org/2000/svg" viewBox="0 0 27.19 26.03">
  <defs>
    <style>
      .cls-1 {
        fill: none;
        stroke: #fff;
        stroke-miterlimit: 10;
        stroke-width: 2px;
      }
    </style>
  </defs>
  <path class="cls-1" d="m13.23,21.48l-6.58,3.46c-.57.3-1.23-.18-1.13-.82l1.26-7.33c.04-.25-.04-.51-.22-.69L1.24,10.92c-.46-.45-.21-1.23.43-1.32l7.36-1.07c.25-.04.47-.2.58-.42l3.29-6.67c.28-.58,1.11-.58,1.39,0l3.29,6.67c.11.23.33.39.58.42l7.36,1.07c.64.09.89.87.43,1.32l-5.32,5.19c-.18.18-.27.43-.22.69l1.26,7.33c.11.63-.56,1.12-1.13.82l-6.58-3.46c-.23-.12-.5-.12-.72,0Z"/>
</svg>